<svg xmlns="http://www.w3.org/2000/svg" viewBox="0 0 36 32"  fill="#666d89" width="36" height="32">
	<style>
		tspan { white-space:pre }
		.shp0 { fill: #666d89 } 
	</style>
	<g id="Services">
		<g id="Heart">
			<path id="heart" class="shp0" d="M31.19 4.79C27.56 1.2 21.76 1.13 18 4.5C14.24 1.13 8.44 1.2 4.81 4.79C1.07 8.49 1.07 14.49 4.81 18.19C5.88 19.25 15.86 29.12 15.86 29.12C17.04 30.29 18.96 30.29 20.14 29.12C20.14 29.12 31.07 18.31 31.19 18.19C34.93 14.49 34.93 8.49 31.19 4.79ZM29.77 16.78L18.71 27.71C18.32 28.1 17.68 28.1 17.29 27.71L6.24 16.78C3.28 13.86 3.28 9.12 6.24 6.2C9.08 3.39 13.65 3.29 16.64 5.98L18 7.2L19.36 5.98C22.35 3.29 26.92 3.39 29.77 6.2C32.72 9.12 32.72 13.86 29.77 16.78ZM11.25 7.03C11.25 7.03 11.25 7.03 11.25 7.03C8.9 7.03 7 8.93 7 11.27L7 11.27C7 11.55 7.23 11.77 7.5 11.77C7.78 11.77 8 11.55 8 11.27L8 11.27C8 9.48 9.46 8.03 11.25 8.03L11.25 8.03C11.53 8.03 11.75 7.8 11.75 7.53C11.75 7.25 11.53 7.03 11.25 7.03Z" />
		</g>
	</g>
</svg>