<svg xmlns="http://www.w3.org/2000/svg" viewBox="0 0 35 35" fill="#666d89" width="35" height="35">
	<style>
		tspan { white-space:pre }
		.shp0 { fill: #666d89 } 
	</style>
	<g id="Services">
		<g id="Pen">
			<path id="pen" class="shp0" d="M30.4 3.58C28.75 1.94 26.59 1 24.45 1C22.65 1 20.99 1.67 19.78 2.88L14.91 7.78C14.9 7.79 14.88 7.8 14.87 7.82C14.86 7.83 14.85 7.84 14.85 7.85L14.85 7.85L4.52 18.26C4.04 18.73 3.7 19.32 3.5 19.96L1.16 28.47C1.15 28.49 1 29.16 1 29.5C1 31.43 2.57 33 4.5 33C4.89 33 5.63 32.82 5.66 32.81L14.14 30.58C14.78 30.39 15.37 30.04 15.84 29.57L31.11 14.19C33.88 11.41 33.57 6.75 30.4 3.58ZM17.01 24.8C16.93 23.89 16.68 23.01 16.3 22.17L25.75 12.71C26.33 14.54 26.03 16.45 24.76 17.72C24.76 17.73 24.75 17.73 24.74 17.74L24.75 17.75L17.02 25.54C17.03 25.29 17.04 25.05 17.01 24.8ZM15.79 21.26C15.42 20.64 15 20.05 14.47 19.53C13.86 18.92 13.16 18.44 12.43 18.04L21.96 8.5C22.71 8.84 23.42 9.31 24.06 9.94C24.6 10.48 25.02 11.08 25.34 11.71L15.79 21.26ZM11.49 17.56C10.56 17.19 9.59 16.98 8.62 16.96L16.32 9.2C17.5 8.05 19.22 7.72 20.91 8.14L11.49 17.56ZM5.17 30.87C5.06 30.9 4.72 30.98 4.49 31C3.67 30.99 3 30.32 3 29.5C3.01 29.33 3.08 29.04 3.1 28.94L4.15 25.12C5.3 25.09 6.53 25.54 7.49 26.51C8.48 27.49 8.94 28.74 8.89 29.9L5.17 30.87ZM9.87 29.64C9.85 28.3 9.3 26.9 8.2 25.8C7.16 24.76 5.8 24.15 4.44 24.1L5.43 20.49C5.5 20.25 5.65 20.02 5.82 19.81C7.83 18.37 10.91 18.8 13.06 20.94C15.32 23.21 15.67 26.53 13.93 28.51C13.81 28.57 13.7 28.63 13.57 28.67L9.87 29.64ZM29.69 12.77L28.01 14.47C28.01 14.24 28.04 14.03 28.01 13.8C27.84 11.86 26.94 9.99 25.47 8.53C23.84 6.9 21.68 5.96 19.54 5.96L21.2 4.29C22.03 3.46 23.18 3 24.45 3C26.06 3 27.71 3.73 28.98 5C30.18 6.19 30.89 7.67 30.99 9.16C31.08 10.56 30.62 11.84 29.69 12.77Z" />
		</g>
	</g>
</svg>