<svg xmlns="http://www.w3.org/2000/svg" viewBox="0 0 26 36" fill="#666d89" width="26" height="36">
	<style>
		tspan { white-space:pre }
		.shp0 { fill: #666d89 } 
	</style>
	<g id="Services">
		<g id="Phone">
			<path id="phone" class="shp0" d="M21 2L5 2C3.34 2 2 3.34 2 5L2 31C2 32.66 3.34 34 5 34L21 34C22.66 34 24 32.66 24 31L24 5C24 3.34 22.66 2 21 2ZM22 31C22 31.55 21.55 32 21 32L5 32C4.45 32 4 31.55 4 31L4 29L22 29L22 31ZM22 28L4 28L4 8L22 8L22 28ZM22 7L4 7L4 5C4 4.45 4.45 4 5 4L21 4C21.55 4 22 4.45 22 5L22 7ZM15 5.5C15 5.78 14.78 6 14.5 6L11.5 6C11.22 6 11 5.78 11 5.5L11 5.5C11 5.22 11.22 5 11.5 5L14.5 5C14.78 5 15 5.22 15 5.5L15 5.5ZM14 30.5C14 30.77 13.78 31 13.5 31L12.5 31C12.22 31 12 30.77 12 30.5L12 30.5C12 30.22 12.22 30 12.5 30L13.5 30C13.78 30 14 30.22 14 30.5L14 30.5Z" />
		</g>
	</g>
</svg>