<svg xmlns="http://www.w3.org/2000/svg" viewBox="0 0 36 34" fill="#666d89" width="36" height="34">
	<style>
		tspan { white-space:pre }
		.shp0 { fill: #666d89 } 
	</style>
	<g id="Services">
		<g id="Star">
			<path id="star" class="shp0" d="M33.88 12.56C33.6 11.76 32.89 11.17 32.04 11.05L23.71 9.81L20.09 2.29C19.71 1.51 18.9 1 18 1C17.1 1 16.29 1.51 15.91 2.29L12.29 9.81L3.96 11.05C3.11 11.17 2.4 11.76 2.12 12.56C1.84 13.36 2.05 14.24 2.66 14.84L8.76 20.93L7.34 29.39C7.2 30.24 7.57 31.09 8.29 31.59C8.69 31.86 9.16 32 9.62 32C10.01 32 10.39 31.91 10.74 31.72L18 27.81L25.26 31.72C25.61 31.91 25.99 32 26.38 32C26.84 32 27.31 31.86 27.71 31.59C28.43 31.09 28.8 30.24 28.66 29.39L27.24 20.93L33.34 14.84C33.95 14.24 34.16 13.36 33.88 12.56ZM25.59 19.36C25.08 19.87 24.84 20.59 24.96 21.3L26.38 29.75L19.12 25.84C18.77 25.65 18.38 25.56 18 25.56C17.62 25.56 17.23 25.65 16.88 25.84L9.62 29.75L11.04 21.3C11.16 20.59 10.92 19.87 10.41 19.36L4.31 13.27L12.64 12.03C13.4 11.92 14.05 11.44 14.38 10.76L18 3.25L21.62 10.76C21.95 11.44 22.6 11.92 23.36 12.03L31.69 13.27L25.59 19.36Z" />
		</g>
	</g>
</svg>