<svg xmlns="http://www.w3.org/2000/svg" viewBox="0 0 35 31" fill="#666d89" width="35" height="31">
	<style>
		tspan { white-space:pre }
		.shp0 { fill: #666d89 } 
	</style>
	<g id="Services">
		<g id="Bubble">
			<path id="bubble" class="shp0" d="M17 6C11.04 6 6 9.21 6 13C6 13.28 6.22 13.5 6.5 13.5C6.78 13.5 7 13.28 7 13C7 9.8 11.67 7 17 7C17.28 7 17.5 6.78 17.5 6.5C17.5 6.22 17.28 6 17 6ZM17 1C8.16 1 1 6.37 1 13C1 17.13 3.78 20.77 8.01 22.93C8.01 22.95 8 22.97 8 23C8 24.79 6.66 26.72 6.07 27.74C6.07 27.74 6.07 27.74 6.07 27.74C6.03 27.85 6 27.97 6 28.09C6 28.59 6.41 29 6.91 29C7 29 7.17 28.97 7.16 28.99C10.29 28.48 13.23 25.6 13.91 24.77C14.91 24.92 15.94 25 17 25C25.84 25 33 19.63 33 13C33 6.37 25.84 1 17 1ZM17 23C16.08 23 15.14 22.93 14.2 22.79C14.11 22.78 14.01 22.77 13.91 22.77C13.32 22.77 12.75 23.04 12.37 23.5C11.94 24.02 10.72 25.19 9.28 26.04C9.67 25.15 9.98 24.14 10 23.11C10 23.05 10.01 22.98 10.01 22.93C10.01 22.17 9.59 21.49 8.92 21.14C5.21 19.25 3 16.21 3 13C3 7.49 9.28 3 17 3C24.72 3 31 7.49 31 13C31 18.51 24.72 23 17 23Z" />
		</g>
	</g>
</svg>