<svg xmlns="http://www.w3.org/2000/svg" viewBox="0 0 26 35"  fill="#666d89" width="26" height="35">
	<style>
		tspan { white-space:pre }
		.shp0 { fill: #666d89 } 
	</style>
	<g id="Services">
		<g id="Bulb">
			<path id="bulb" class="shp0" d="M13 1C6.92 1 2 5.92 2 12C2 16.03 5.69 20.3 7.03 24.05C9.03 29.65 8.81 33 13 33C17.25 33 16.96 29.67 18.97 24.08C20.32 20.32 24 16 24 12C24 5.92 19.08 1 13 1ZM15.59 28.18L10.63 28.8C10.46 28.28 10.27 27.68 10.04 26.9C10.03 26.89 10.03 26.88 10.03 26.87L16.22 26.1C16.13 26.39 16.03 26.7 15.95 26.98C15.82 27.43 15.7 27.82 15.59 28.18ZM9.74 25.91C9.55 25.31 9.35 24.67 9.12 24L16.89 24C16.76 24.36 16.64 24.72 16.54 25.06L9.74 25.91ZM13 31C11.99 31 11.52 30.88 11 29.75L15.24 29.22C14.63 30.87 14.18 31 13 31ZM17.67 22L8.34 22C7.84 20.92 7.24 19.84 6.65 18.78C5.35 16.45 4 14.03 4 12C4 7.04 8.04 3 13 3C17.96 3 22 7.04 22 12C22 14.02 20.65 16.45 19.34 18.8C18.76 19.85 18.17 20.93 17.67 22ZM13 6C9.69 6 7 8.69 7 12C7 12.28 7.22 12.5 7.5 12.5C7.78 12.5 8 12.28 8 12C8 9.24 10.24 7 13 7C13.28 7 13.5 6.78 13.5 6.5C13.5 6.22 13.28 6 13 6Z" />
		</g>
	</g>
</svg>