<svg width="0" height="0" class="hidden">
  <symbol xmlns="http://www.w3.org/2000/svg" viewBox="0 0 32 31" id="star">
    <path fill="#666d89" d="M31.344 13.842l-6.103 6.093 1.416 8.451a2.228 2.228 0 0 1-.948 2.203 2.36 2.36 0 0 1-2.45.13L16 26.813 8.742 30.72a2.357 2.357 0 0 1-2.45-.13 2.226 2.226 0 0 1-.947-2.204l1.415-8.451-6.102-6.093a2.205 2.205 0 0 1-.537-2.285 2.298 2.298 0 0 1 1.842-1.511l8.327-1.238 3.619-7.514A2.318 2.318 0 0 1 16 0c.896 0 1.712.505 2.092 1.294l3.62 7.514 8.326 1.238a2.3 2.3 0 0 1 1.843 1.51 2.211 2.211 0 0 1-.537 2.286zm-1.655-1.57l-8.327-1.24a2.305 2.305 0 0 1-1.742-1.268L16 2.25l-3.62 7.513a2.307 2.307 0 0 1-1.743 1.267l-8.326 1.24 6.102 6.092c.512.511.744 1.229.626 1.934l-1.416 8.452 7.26-3.907a2.358 2.358 0 0 1 2.235 0l7.259 3.907-1.415-8.452a2.213 2.213 0 0 1 .626-1.934z"></path>
  </symbol>
  <symbol xmlns="http://www.w3.org/2000/svg" viewBox="0 0 32 28" id="bubble">
    <path fill="#666d89" d="M16.5 5.5a.5.5 0 0 1-.5.5C10.673 6 6 8.804 6 12a.5.5 0 1 1-1 0c0-3.794 5.037-7 11-7a.5.5 0 0 1 .5.5zM32 12c0 6.627-7.164 12-16 12a21.27 21.27 0 0 1-3.086-.228c-.684.833-3.628 3.704-6.753 4.216.004-.013-.161.012-.255.012a.906.906 0 0 1-.832-1.264h-.002C5.662 25.723 7 23.793 7 22c0-.03.008-.047.008-.074C2.779 19.766 0 16.127 0 12 0 5.373 7.163 0 16 0c8.836 0 16 5.373 16 12zm-2 0c0-5.514-6.28-10-14-10S2 6.486 2 12c0 3.207 2.212 6.252 5.918 8.145a2 2 0 0 1 1.081 1.965c-.02 1.034-.326 2.038-.716 2.932 1.44-.856 2.657-2.018 3.085-2.54a2 2 0 0 1 1.836-.709A19.29 19.29 0 0 0 16 22c7.72 0 14-4.486 14-10z"></path>
  </symbol>
  <symbol xmlns="http://www.w3.org/2000/svg" viewBox="0 0 22 32" id="phone">
    <path fill="#666d89" d="M22 3v26a3 3 0 0 1-3 3H3a3 3 0 0 1-3-3V3a3 3 0 0 1 3-3h16a3 3 0 0 1 3 3zm-2 23.996H2v2.005a1 1 0 0 0 1 1l16-.002a1 1 0 0 0 1-1zM20 6H2v19.997l18-.001zm0-3a1 1 0 0 0-1-1H3a1 1 0 0 0-1 1v2h18zm-7.5 1h-3a.5.5 0 1 1 0-1h3a.5.5 0 1 1 0 1zm-1 24.996h-1a.5.5 0 1 1 0-1h1a.5.5 0 1 1 0 1z"></path>
  </symbol>
  <symbol xmlns="http://www.w3.org/2000/svg" viewBox="0 0 32 28" id="heart">
    <path fill="#666d89" d="M29.192 16.192L18.14 27.122a3.047 3.047 0 0 1-4.278 0L2.808 16.192a9.401 9.401 0 0 1 0-13.4C6.44-.799 12.24-.874 16 2.505c3.76-3.38 9.562-3.304 13.192.287a9.401 9.401 0 0 1 0 13.4zm-1.427-11.99c-2.842-2.812-7.416-2.91-10.409-.222L16 5.2l-1.356-1.22c-2.993-2.689-7.565-2.59-10.409.222a7.429 7.429 0 0 0 0 10.579l11.053 10.93c.391.39 1.032.39 1.425 0l11.052-10.93a7.429 7.429 0 0 0 0-10.58zM9.752 5.526a.5.5 0 0 1-.5.5H9.25A3.248 3.248 0 0 0 6 9.27v.001a.5.5 0 0 1-1 0 4.247 4.247 0 0 1 4.247-4.244h.004a.5.5 0 0 1 .5.499z"></path>
  </symbol>
  <symbol xmlns="http://www.w3.org/2000/svg" viewBox="0 0 22 32" id="bulb">
    <path fill="#666d89" d="M22 11c0 4-3.684 8.319-5.031 12.078C14.965 28.666 15.25 32 11 32c-4.187 0-3.966-3.349-5.969-8.945C3.69 19.303 0 15.03 0 11 0 4.925 4.925 0 11 0s11 4.925 11 11zm-8.048 14.982c.081-.278.176-.588.264-.884l-6.189.773a43.927 43.927 0 0 0 .606 1.925l4.96-.62c.11-.355.228-.745.36-1.194zm.583-1.923c.107-.34.23-.7.352-1.059H7.12c.229.672.434 1.307.615 1.908zm-1.294 4.16l-4.238.531C9.52 29.884 9.987 30 11 30c1.18 0 1.628-.127 2.241-1.78zm4.104-10.424C18.65 15.446 20 13.018 20 11c0-4.963-4.037-9-9-9s-9 4.037-9 9c0 2.033 1.349 4.448 2.653 6.783.59 1.057 1.188 2.138 1.686 3.217h9.333c.495-1.074 1.088-2.151 1.673-3.205zM11.5 5.5a.5.5 0 0 1-.5.5c-2.757 0-5 2.243-5 5a.5.5 0 1 1-1 0c0-3.309 2.691-6 6-6a.5.5 0 0 1 .5.5z"></path>
  </symbol>
  <symbol xmlns="http://www.w3.org/2000/svg" viewBox="0 0 32 32" id="pen">
    <path fill="#666d89" d="M30.107 13.186L14.845 28.568a4.029 4.029 0 0 1-1.705 1.016l-8.478 2.229c-.027.004-.772.187-1.157.187A3.503 3.503 0 0 1 0 28.5c0-.339.153-1.008.156-1.031l2.349-8.508a4.022 4.022 0 0 1 1.013-1.705l10.33-10.408-.002-.002c.008-.008.012-.019.02-.027.015-.014.032-.024.047-.038l4.867-4.904C19.99.668 21.65 0 23.45 0c2.135 0 4.3.938 5.946 2.58 3.175 3.17 3.488 7.826.711 10.606zM16.024 24.54l7.728-7.789-.013-.013c.008-.008.018-.012.026-.02 1.267-1.268 1.563-3.178.985-5.004l-9.454 9.453c.382.84.637 1.725.719 2.628.022.253.01.497.01.745zm8.314-13.83a6.98 6.98 0 0 0-1.28-1.77 6.951 6.951 0 0 0-2.098-1.437l-9.532 9.531c.731.404 1.432.881 2.044 1.493.525.524.949 1.115 1.322 1.728zm-4.429-3.57c-1.691-.42-3.409-.09-4.588 1.061l-7.703 7.762a7.973 7.973 0 0 1 2.868.599zM7.888 28.897c.05-1.156-.411-2.41-1.394-3.39-.967-.97-2.197-1.415-3.34-1.384l-1.052 3.814c-.023.107-.09.396-.102.563 0 .822.667 1.491 1.49 1.5.23-.015.569-.101.678-.127zm4.681-1.23c.126-.038.244-.097.36-.157 1.746-1.982 1.395-5.302-.871-7.568-2.144-2.145-5.229-2.569-7.235-1.133a1.972 1.972 0 0 0-.39.684l-.996 3.608c1.36.053 2.723.655 3.765 1.699 1.102 1.1 1.648 2.496 1.672 3.837zM29.99 8.163c-.101-1.497-.813-2.977-2.007-4.168C26.712 2.728 25.06 2 23.45 2c-1.265 0-2.422.46-3.249 1.286l-1.657 1.67c2.139.006 4.3.942 5.929 2.571 1.464 1.463 2.367 3.334 2.543 5.269.02.23-.007.448-.007.674l1.684-1.697c.93-.931 1.39-2.212 1.296-3.61z"></path>
  </symbol>
</svg>